<svg width="156" height="24" viewBox="0 0 156 24" fill="none" xmlns="http://www.w3.org/2000/svg">
<mask id="path-1-outside-1_143_1078" maskUnits="userSpaceOnUse" x="0" y="0" width="156" height="24" fill="black">
<rect fill="white" width="156" height="24"/>
<path d="M9.44 22H1.7V1.81H9.5C14.54 1.81 17.57 3.91 17.57 7.36C17.57 9.67 16.34 11.23 14.42 11.95C16.43 12.52 17.78 13.81 17.78 16.36C17.78 20.32 14.27 22 9.44 22ZM6.08 5.41V10.21H9.71C12.11 10.21 13.19 9.37 13.19 7.72C13.19 6.22 11.99 5.41 9.74 5.41H6.08ZM6.08 13.81V18.4H9.68C11.81 18.4 13.4 17.92 13.4 16.06C13.4 14.35 12.17 13.81 9.71 13.81H6.08ZM18.8527 22L24.1927 4.66C24.8827 2.47 26.6827 1.42 28.5727 1.42C30.4927 1.42 32.2927 2.47 32.9827 4.66L38.3227 22H33.8527L32.6827 17.86L24.4927 17.89L23.3227 22H18.8527ZM27.9427 5.95L25.6327 13.96H31.5427L29.2627 5.95C29.1427 5.53 28.9627 5.35 28.6027 5.35C28.2727 5.35 28.0627 5.53 27.9427 5.95ZM44.9593 1.81V17.95H54.3793V22H44.4493C41.6593 22 40.5793 20.56 40.5793 18.25V1.81H44.9593ZM60.5464 1.81V17.95H69.9664V22H60.0364C57.2464 22 56.1664 20.56 56.1664 18.25V1.81H60.5464ZM70.0086 22L75.3486 4.66C76.0386 2.47 77.8386 1.42 79.7286 1.42C81.6486 1.42 83.4486 2.47 84.1386 4.66L89.4786 22H85.0086L83.8386 17.86L75.6486 17.89L74.4786 22H70.0086ZM79.0986 5.95L76.7886 13.96H82.6986L80.4186 5.95C80.2986 5.53 80.1186 5.35 79.7586 5.35C79.4286 5.35 79.2186 5.53 79.0986 5.95ZM94.8852 22H90.4452L93.1752 4.63C93.5352 2.53 95.0052 1.42 97.0452 1.42C98.8452 1.42 100.375 2.2 100.855 4.15L104.245 16.75C104.245 16.84 104.275 16.84 104.275 16.84C104.305 16.84 104.335 16.84 104.335 16.75L107.665 4.24C108.175 2.29 109.735 1.42 111.565 1.42C113.575 1.42 115.015 2.56 115.315 4.72L117.805 22H113.365L111.415 6.16C111.415 6.01 111.385 5.92 111.265 5.92C111.175 5.92 111.115 5.98 111.085 6.1L107.335 19.48C106.915 21.01 105.715 21.76 104.275 21.76C102.895 21.76 101.605 21.04 101.245 19.57L97.4952 6.1C97.4652 5.95 97.4052 5.92 97.3452 5.92C97.2552 5.92 97.1652 5.98 97.1652 6.13L94.8852 22ZM118.761 22L124.101 4.66C124.791 2.47 126.591 1.42 128.481 1.42C130.401 1.42 132.201 2.47 132.891 4.66L138.231 22H133.761L132.591 17.86L124.401 17.89L123.231 22H118.761ZM127.851 5.95L125.541 13.96H131.451L129.171 5.95C129.051 5.53 128.871 5.35 128.511 5.35C128.181 5.35 127.971 5.53 127.851 5.95ZM146.968 22.39C143.338 22.39 140.428 20.86 139.138 17.98L142.798 16.15C143.458 17.62 144.868 18.37 146.968 18.37C148.858 18.37 150.298 17.59 150.298 16.15C150.298 14.47 148.708 14.2 146.608 13.84C143.578 13.33 139.468 12.25 139.468 7.69C139.468 4.15 142.648 1.45 146.818 1.45C150.148 1.45 153.028 2.98 154.318 5.86L150.658 7.69C149.998 6.4 148.678 5.5 146.638 5.5C144.988 5.5 143.848 6.28 143.848 7.51C143.848 9.13 145.528 9.55 147.718 9.94C150.718 10.45 154.678 11.53 154.678 16.12C154.678 19.75 151.258 22.39 146.968 22.39Z"/>
</mask>
<path d="M1.7 22H0.7V23H1.7V22ZM1.7 1.81V0.809999H0.7V1.81H1.7ZM14.42 11.95L14.0689 11.0137L11.22 12.082L14.1472 12.9121L14.42 11.95ZM6.08 5.41V4.41H5.08V5.41H6.08ZM6.08 10.21H5.08V11.21H6.08V10.21ZM6.08 13.81V12.81H5.08V13.81H6.08ZM6.08 18.4H5.08V19.4H6.08V18.4ZM9.44 21H1.7V23H9.44V21ZM2.7 22V1.81H0.7V22H2.7ZM1.7 2.81H9.5V0.809999H1.7V2.81ZM9.5 2.81C11.8997 2.81 13.6939 3.31266 14.8575 4.11464C15.9807 4.88872 16.57 5.97169 16.57 7.36H18.57C18.57 5.29831 17.6443 3.60627 15.9925 2.46786C14.3811 1.35734 12.1403 0.809999 9.5 0.809999V2.81ZM16.57 7.36C16.57 8.33121 16.314 9.09044 15.9005 9.67114C15.4848 10.2548 14.8705 10.713 14.0689 11.0137L14.7711 12.8863C15.8895 12.467 16.8502 11.7852 17.5295 10.8314C18.211 9.87456 18.57 8.69879 18.57 7.36H16.57ZM14.1472 12.9121C15.0236 13.1606 15.6613 13.5393 16.0829 14.0495C16.4955 14.5489 16.78 15.2694 16.78 16.36H18.78C18.78 14.9006 18.3895 13.7011 17.6246 12.7755C16.8687 11.8607 15.8264 11.3094 14.6928 10.9879L14.1472 12.9121ZM16.78 16.36C16.78 17.9834 16.0906 19.0761 14.8957 19.8142C13.6379 20.5912 11.7654 21 9.44 21V23C11.9446 23 14.2421 22.5688 15.9468 21.5158C17.7144 20.4239 18.78 18.6966 18.78 16.36H16.78ZM5.08 5.41V10.21H7.08V5.41H5.08ZM6.08 11.21H9.71V9.21H6.08V11.21ZM9.71 11.21C10.9936 11.21 12.1179 10.9915 12.9398 10.3913C13.8251 9.7448 14.19 8.78563 14.19 7.72H12.19C12.19 8.30437 12.0149 8.5902 11.7603 8.77616C11.4421 9.00847 10.8264 9.21 9.71 9.21V11.21ZM14.19 7.72C14.19 6.65901 13.742 5.7599 12.8659 5.1721C12.0502 4.62478 10.9585 4.41 9.74 4.41V6.41C10.7715 6.41 11.4048 6.60022 11.7516 6.8329C12.038 7.02509 12.19 7.28099 12.19 7.72H14.19ZM9.74 4.41H6.08V6.41H9.74V4.41ZM5.08 13.81V18.4H7.08V13.81H5.08ZM6.08 19.4H9.68V17.4H6.08V19.4ZM9.68 19.4C10.7802 19.4 11.9178 19.2833 12.8078 18.8107C13.2728 18.5637 13.6865 18.2112 13.9777 17.7215C14.2683 17.233 14.4 16.6703 14.4 16.06H12.4C12.4 16.3797 12.3329 16.5745 12.2588 16.6991C12.1854 16.8226 12.0685 16.9388 11.8697 17.0443C11.4322 17.2767 10.7098 17.4 9.68 17.4V19.4ZM14.4 16.06C14.4 15.5146 14.3019 14.9901 14.0536 14.52C13.8008 14.0413 13.4249 13.6814 12.9708 13.4239C12.1146 12.9383 10.9645 12.81 9.71 12.81V14.81C10.9155 14.81 11.6104 14.9517 11.9842 15.1636C12.1451 15.2549 12.2305 15.3506 12.2851 15.4541C12.3443 15.5662 12.4 15.7504 12.4 16.06H14.4ZM9.71 12.81H6.08V14.81H9.71V12.81ZM18.8527 22L17.897 21.7057L17.4984 23H18.8527V22ZM24.1927 4.66L23.2389 4.35949L23.237 4.36568L24.1927 4.66ZM32.9827 4.66L33.9385 4.36567L33.9365 4.35949L32.9827 4.66ZM38.3227 22V23H39.677L39.2784 21.7057L38.3227 22ZM33.8527 22L32.8904 22.272L33.0962 23H33.8527V22ZM32.6827 17.86L33.645 17.588L33.4385 16.8572L32.6791 16.86L32.6827 17.86ZM24.4927 17.89L24.4891 16.89L23.7369 16.8928L23.5309 17.6162L24.4927 17.89ZM23.3227 22V23H24.0778L24.2845 22.2738L23.3227 22ZM27.9427 5.95L28.9036 6.2271L28.9043 6.22472L27.9427 5.95ZM25.6327 13.96L24.6719 13.6829L24.3036 14.96H25.6327V13.96ZM31.5427 13.96V14.96H32.8671L32.5045 13.6862L31.5427 13.96ZM29.2627 5.95L30.2245 5.67623L30.2243 5.67528L29.2627 5.95ZM19.8084 22.2943L25.1484 4.95432L23.237 4.36568L17.897 21.7057L19.8084 22.2943ZM25.1465 4.96051C25.6927 3.22709 27.0755 2.42 28.5727 2.42V0.419999C26.2899 0.419999 24.0728 1.7129 23.239 4.35949L25.1465 4.96051ZM28.5727 2.42C30.1038 2.42 31.4839 3.23053 32.029 4.96051L33.9365 4.35949C33.1016 1.70946 30.8817 0.419999 28.5727 0.419999V2.42ZM32.027 4.95432L37.367 22.2943L39.2784 21.7057L33.9384 4.36568L32.027 4.95432ZM38.3227 21H33.8527V23H38.3227V21ZM34.815 21.728L33.645 17.588L31.7204 18.132L32.8904 22.272L34.815 21.728ZM32.6791 16.86L24.4891 16.89L24.4964 18.89L32.6864 18.86L32.6791 16.86ZM23.5309 17.6162L22.3609 21.7262L24.2845 22.2738L25.4545 18.1638L23.5309 17.6162ZM23.3227 21H18.8527V23H23.3227V21ZM26.9819 5.6729L24.6719 13.6829L26.5936 14.2371L28.9036 6.2271L26.9819 5.6729ZM25.6327 14.96H31.5427V12.96H25.6327V14.96ZM32.5045 13.6862L30.2245 5.67623L28.3009 6.22377L30.5809 14.2338L32.5045 13.6862ZM30.2243 5.67528C30.145 5.39792 30.0055 5.0404 29.7032 4.75971C29.3656 4.44621 28.9616 4.35 28.6027 4.35V6.35C28.6109 6.35 28.5774 6.3512 28.5208 6.33208C28.4586 6.31106 28.3952 6.27443 28.3423 6.22529C28.2932 6.17972 28.2733 6.14216 28.2719 6.13938C28.2715 6.13869 28.2832 6.16184 28.3012 6.22472L30.2243 5.67528ZM28.6027 4.35C28.2411 4.35 27.8526 4.45553 27.5264 4.74793C27.2246 5.01857 27.0692 5.36718 26.9812 5.67528L28.9043 6.22472C28.9362 6.11282 28.9459 6.16143 28.8615 6.23707C28.8161 6.27775 28.7608 6.3102 28.7033 6.33006C28.6488 6.34883 28.611 6.35 28.6027 6.35V4.35ZM44.9593 1.81H45.9593V0.809999H44.9593V1.81ZM44.9593 17.95H43.9593V18.95H44.9593V17.95ZM54.3793 17.95H55.3793V16.95H54.3793V17.95ZM54.3793 22V23H55.3793V22H54.3793ZM40.5793 1.81V0.809999H39.5793V1.81H40.5793ZM43.9593 1.81V17.95H45.9593V1.81H43.9593ZM44.9593 18.95H54.3793V16.95H44.9593V18.95ZM53.3793 17.95V22H55.3793V17.95H53.3793ZM54.3793 21H44.4493V23H54.3793V21ZM44.4493 21C43.2165 21 42.5567 20.6838 42.1917 20.3011C41.8182 19.9095 41.5793 19.2669 41.5793 18.25H39.5793C39.5793 19.5431 39.8804 20.7755 40.7444 21.6814C41.6169 22.5962 42.8921 23 44.4493 23V21ZM41.5793 18.25V1.81H39.5793V18.25H41.5793ZM40.5793 2.81H44.9593V0.809999H40.5793V2.81ZM60.5464 1.81H61.5464V0.809999H60.5464V1.81ZM60.5464 17.95H59.5464V18.95H60.5464V17.95ZM69.9664 17.95H70.9664V16.95H69.9664V17.95ZM69.9664 22V23H70.9664V22H69.9664ZM56.1664 1.81V0.809999H55.1664V1.81H56.1664ZM59.5464 1.81V17.95H61.5464V1.81H59.5464ZM60.5464 18.95H69.9664V16.95H60.5464V18.95ZM68.9664 17.95V22H70.9664V17.95H68.9664ZM69.9664 21H60.0364V23H69.9664V21ZM60.0364 21C58.8036 21 58.1438 20.6838 57.7788 20.3011C57.4053 19.9095 57.1664 19.2669 57.1664 18.25H55.1664C55.1664 19.5431 55.4675 20.7755 56.3315 21.6814C57.204 22.5962 58.4792 23 60.0364 23V21ZM57.1664 18.25V1.81H55.1664V18.25H57.1664ZM56.1664 2.81H60.5464V0.809999H56.1664V2.81ZM70.0086 22L69.0529 21.7057L68.6543 23H70.0086V22ZM75.3486 4.66L74.3948 4.35949L74.3929 4.36568L75.3486 4.66ZM84.1386 4.66L85.0943 4.36567L85.0924 4.35949L84.1386 4.66ZM89.4786 22V23H90.8329L90.4343 21.7057L89.4786 22ZM85.0086 22L84.0463 22.272L84.252 23H85.0086V22ZM83.8386 17.86L84.8009 17.588L84.5944 16.8572L83.8349 16.86L83.8386 17.86ZM75.6486 17.89L75.6449 16.89L74.8927 16.8928L74.6868 17.6162L75.6486 17.89ZM74.4786 22V23H75.2337L75.4404 22.2738L74.4786 22ZM79.0986 5.95L80.0594 6.2271L80.0601 6.22472L79.0986 5.95ZM76.7886 13.96L75.8278 13.6829L75.4594 14.96H76.7886V13.96ZM82.6986 13.96V14.96H84.023L83.6604 13.6862L82.6986 13.96ZM80.4186 5.95L81.3804 5.67623L81.3801 5.67528L80.4186 5.95ZM70.9643 22.2943L76.3043 4.95432L74.3929 4.36568L69.0529 21.7057L70.9643 22.2943ZM76.3024 4.96051C76.8485 3.22709 78.2314 2.42 79.7286 2.42V0.419999C77.4458 0.419999 75.2287 1.7129 74.3948 4.35949L76.3024 4.96051ZM79.7286 2.42C81.2597 2.42 82.6398 3.23053 83.1848 4.96051L85.0924 4.35949C84.2574 1.70946 82.0375 0.419999 79.7286 0.419999V2.42ZM83.1829 4.95432L88.5229 22.2943L90.4343 21.7057L85.0943 4.36568L83.1829 4.95432ZM89.4786 21H85.0086V23H89.4786V21ZM85.9709 21.728L84.8009 17.588L82.8763 18.132L84.0463 22.272L85.9709 21.728ZM83.8349 16.86L75.6449 16.89L75.6523 18.89L83.8423 18.86L83.8349 16.86ZM74.6868 17.6162L73.5168 21.7262L75.4404 22.2738L76.6104 18.1638L74.6868 17.6162ZM74.4786 21H70.0086V23H74.4786V21ZM78.1377 5.6729L75.8278 13.6829L77.7494 14.2371L80.0594 6.2271L78.1377 5.6729ZM76.7886 14.96H82.6986V12.96H76.7886V14.96ZM83.6604 13.6862L81.3804 5.67623L79.4568 6.22377L81.7368 14.2338L83.6604 13.6862ZM81.3801 5.67528C81.3009 5.39792 81.1613 5.0404 80.859 4.75971C80.5214 4.44621 80.1174 4.35 79.7586 4.35V6.35C79.7668 6.35 79.7332 6.3512 79.6767 6.33208C79.6144 6.31106 79.5511 6.27443 79.4981 6.22529C79.4491 6.17972 79.4292 6.14216 79.4277 6.13938C79.4274 6.13869 79.4391 6.16184 79.4571 6.22472L81.3801 5.67528ZM79.7586 4.35C79.3969 4.35 79.0084 4.45553 78.6823 4.74793C78.3804 5.01857 78.2251 5.36718 78.1371 5.67528L80.0601 6.22472C80.0921 6.11282 80.1018 6.16143 80.0174 6.23707C79.972 6.27775 79.9167 6.3102 79.8591 6.33006C79.8047 6.34883 79.7668 6.35 79.7586 6.35V4.35ZM94.8852 22V23H95.7518L95.875 22.1422L94.8852 22ZM90.4452 22L89.4573 21.8447L89.2757 23H90.4452V22ZM93.1752 4.63L92.1894 4.46102L92.1873 4.47474L93.1752 4.63ZM100.855 4.15L99.8841 4.38902L99.8867 4.39944L99.8895 4.40981L100.855 4.15ZM104.245 16.75H105.245V16.6178L105.211 16.4902L104.245 16.75ZM104.335 16.75L103.369 16.4928L103.335 16.6192V16.75H104.335ZM107.665 4.24L108.632 4.49723L108.633 4.49303L107.665 4.24ZM115.315 4.72L114.325 4.85757L114.325 4.86262L115.315 4.72ZM117.805 22V23H118.96L118.795 21.8574L117.805 22ZM113.365 22L112.373 22.1222L112.481 23H113.365V22ZM111.415 6.16H110.415V6.22132L110.423 6.28218L111.415 6.16ZM111.085 6.1L112.048 6.36987L112.052 6.35626L112.055 6.34254L111.085 6.1ZM107.335 19.48L106.372 19.2101L106.371 19.2153L107.335 19.48ZM101.245 19.57L102.216 19.3321L102.213 19.3169L102.209 19.3018L101.245 19.57ZM97.4952 6.1L96.5146 6.29611L96.5219 6.33247L96.5318 6.3682L97.4952 6.1ZM97.1652 6.13L98.155 6.27221L98.1652 6.20147V6.13H97.1652ZM94.8852 21H90.4452V23H94.8852V21ZM91.433 22.1553L94.163 4.78526L92.1873 4.47474L89.4573 21.8447L91.433 22.1553ZM94.1608 4.79896C94.3062 3.95048 94.6583 3.37961 95.1091 3.01495C95.5649 2.64622 96.2066 2.42 97.0452 2.42V0.419999C95.8437 0.419999 94.7304 0.748773 93.8512 1.46005C92.967 2.17539 92.4041 3.20951 92.1895 4.46103L94.1608 4.79896ZM97.0452 2.42C97.809 2.42 98.4347 2.58624 98.8959 2.88939C99.3378 3.17988 99.7001 3.64127 99.8841 4.38902L101.826 3.91098C101.53 2.70873 100.887 1.80511 99.9944 1.2181C99.1206 0.643758 98.0814 0.419999 97.0452 0.419999V2.42ZM99.8895 4.40981L103.279 17.0098L105.211 16.4902L101.821 3.89019L99.8895 4.40981ZM103.245 16.75C103.245 16.8745 103.26 17.1315 103.428 17.3834C103.521 17.5227 103.653 17.648 103.823 17.733C103.905 17.7739 103.987 17.801 104.064 17.8176C104.103 17.8259 104.14 17.8315 104.175 17.835C104.193 17.8368 104.21 17.838 104.227 17.8388C104.235 17.8392 104.243 17.8395 104.251 17.8397C104.255 17.8398 104.259 17.8399 104.263 17.8399C104.265 17.84 104.267 17.84 104.269 17.84C104.27 17.84 104.272 17.84 104.272 17.84C104.274 17.84 104.275 17.84 104.275 16.84C104.275 15.84 104.277 15.84 104.278 15.84C104.279 15.84 104.28 15.84 104.281 15.84C104.283 15.84 104.285 15.84 104.287 15.8401C104.291 15.8401 104.295 15.8402 104.299 15.8403C104.307 15.8405 104.315 15.8408 104.323 15.8412C104.34 15.842 104.357 15.8432 104.374 15.8449C104.409 15.8484 104.446 15.8539 104.483 15.862C104.559 15.8783 104.639 15.9047 104.718 15.9442C104.882 16.0264 105.007 16.1461 105.092 16.2741C105.245 16.5035 105.245 16.7155 105.245 16.75H103.245ZM104.275 17.84C104.276 17.84 104.284 17.84 104.293 17.8399C104.302 17.8398 104.316 17.8395 104.334 17.8387C104.368 17.8371 104.425 17.8329 104.493 17.8192C104.643 17.7892 104.846 17.7136 105.024 17.5359C105.34 17.2194 105.335 16.8266 105.335 16.75H103.335C103.335 16.725 103.336 16.6499 103.362 16.5511C103.389 16.4486 103.453 16.2783 103.609 16.1216C103.937 15.7942 104.371 15.84 104.275 15.84V17.84ZM105.302 17.0072L108.632 4.49723L106.699 3.98277L103.369 16.4928L105.302 17.0072ZM108.633 4.49303C108.83 3.73884 109.211 3.24458 109.68 2.92728C110.163 2.60103 110.804 2.42 111.565 2.42V0.419999C110.497 0.419999 109.442 0.673968 108.56 1.27022C107.665 1.87542 107.01 2.79116 106.698 3.98697L108.633 4.49303ZM111.565 2.42C112.38 2.42 112.997 2.64848 113.431 3.01988C113.863 3.38884 114.202 3.97476 114.325 4.85757L116.306 4.58243C116.128 3.30524 115.598 2.24116 114.731 1.50012C113.868 0.761522 112.76 0.419999 111.565 0.419999V2.42ZM114.325 4.86262L116.815 22.1426L118.795 21.8574L116.305 4.57737L114.325 4.86262ZM117.805 21H113.365V23H117.805V21ZM114.358 21.8778L112.408 6.03782L110.423 6.28218L112.373 22.1222L114.358 21.8778ZM112.415 6.16C112.415 6.0674 112.415 5.78418 112.263 5.5049C112.172 5.33887 112.028 5.17371 111.82 5.05931C111.618 4.94903 111.419 4.92 111.265 4.92V6.92C111.171 6.92 111.021 6.90221 110.859 6.8135C110.689 6.72067 110.575 6.58738 110.507 6.4626C110.446 6.34986 110.427 6.25489 110.421 6.21598C110.414 6.1746 110.415 6.15131 110.415 6.16H112.415ZM111.265 4.92C110.973 4.92 110.675 5.02809 110.446 5.25789C110.242 5.46176 110.155 5.69721 110.115 5.85745L112.055 6.34254C112.045 6.38279 112.004 6.52824 111.86 6.67211C111.69 6.8419 111.468 6.92 111.265 6.92V4.92ZM110.122 5.83013L106.372 19.2101L108.298 19.7499L112.048 6.36987L110.122 5.83013ZM106.371 19.2153C106.217 19.7764 105.938 20.1443 105.608 20.3789C105.271 20.6184 104.822 20.76 104.275 20.76V22.76C105.168 22.76 106.039 22.5266 106.767 22.0086C107.503 21.4857 108.034 20.7136 108.299 19.7447L106.371 19.2153ZM104.275 20.76C103.227 20.76 102.439 20.2409 102.216 19.3321L100.274 19.8079C100.771 21.8391 102.563 22.76 104.275 22.76V20.76ZM102.209 19.3018L98.4585 5.8318L96.5318 6.3682L100.282 19.8382L102.209 19.3018ZM98.4757 5.90388C98.4426 5.73809 98.3636 5.4717 98.1385 5.24664C97.8753 4.98339 97.5611 4.92 97.3452 4.92V6.92C97.1892 6.92 96.9351 6.87161 96.7243 6.66086C96.5517 6.4883 96.5177 6.31191 96.5146 6.29611L98.4757 5.90388ZM97.3452 4.92C97.0821 4.92 96.7665 5.00944 96.5143 5.26164C96.2544 5.5215 96.1652 5.84982 96.1652 6.13H98.1652C98.1652 6.26018 98.1209 6.4835 97.9285 6.67586C97.7438 6.86056 97.5182 6.92 97.3452 6.92V4.92ZM96.1753 5.98779L93.8953 21.8578L95.875 22.1422L98.155 6.27221L96.1753 5.98779ZM118.761 22L117.805 21.7057L117.407 23H118.761V22ZM124.101 4.66L123.147 4.35949L123.145 4.36568L124.101 4.66ZM132.891 4.66L133.847 4.36567L133.845 4.35949L132.891 4.66ZM138.231 22V23H139.585L139.187 21.7057L138.231 22ZM133.761 22L132.799 22.272L133.004 23H133.761V22ZM132.591 17.86L133.553 17.588L133.347 16.8572L132.587 16.86L132.591 17.86ZM124.401 17.89L124.397 16.89L123.645 16.8928L123.439 17.6162L124.401 17.89ZM123.231 22V23H123.986L124.193 22.2738L123.231 22ZM127.851 5.95L128.812 6.2271L128.812 6.22472L127.851 5.95ZM125.541 13.96L124.58 13.6829L124.212 14.96H125.541V13.96ZM131.451 13.96V14.96H132.775L132.413 13.6862L131.451 13.96ZM129.171 5.95L130.133 5.67623L130.132 5.67528L129.171 5.95ZM119.717 22.2943L125.057 4.95432L123.145 4.36568L117.805 21.7057L119.717 22.2943ZM125.055 4.96051C125.601 3.22709 126.984 2.42 128.481 2.42V0.419999C126.198 0.419999 123.981 1.7129 123.147 4.35949L125.055 4.96051ZM128.481 2.42C130.012 2.42 131.392 3.23053 131.937 4.96051L133.845 4.35949C133.01 1.70946 130.79 0.419999 128.481 0.419999V2.42ZM131.935 4.95432L137.275 22.2943L139.187 21.7057L133.847 4.36568L131.935 4.95432ZM138.231 21H133.761V23H138.231V21ZM134.723 21.728L133.553 17.588L131.629 18.132L132.799 22.272L134.723 21.728ZM132.587 16.86L124.397 16.89L124.405 18.89L132.595 18.86L132.587 16.86ZM123.439 17.6162L122.269 21.7262L124.193 22.2738L125.363 18.1638L123.439 17.6162ZM123.231 21H118.761V23H123.231V21ZM126.89 5.6729L124.58 13.6829L126.502 14.2371L128.812 6.2271L126.89 5.6729ZM125.541 14.96H131.451V12.96H125.541V14.96ZM132.413 13.6862L130.133 5.67623L128.209 6.22377L130.489 14.2338L132.413 13.6862ZM130.132 5.67528C130.053 5.39792 129.914 5.0404 129.611 4.75971C129.274 4.44621 128.87 4.35 128.511 4.35V6.35C128.519 6.35 128.486 6.3512 128.429 6.33208C128.367 6.31106 128.303 6.27443 128.25 6.22529C128.201 6.17972 128.182 6.14216 128.18 6.13938C128.18 6.13869 128.191 6.16184 128.209 6.22472L130.132 5.67528ZM128.511 4.35C128.149 4.35 127.761 4.45553 127.435 4.74793C127.133 5.01857 126.977 5.36718 126.889 5.67528L128.812 6.22472C128.844 6.11282 128.854 6.16143 128.77 6.23707C128.724 6.27775 128.669 6.3102 128.611 6.33006C128.557 6.34883 128.519 6.35 128.511 6.35V4.35ZM139.138 17.98L138.69 17.0856L137.833 17.5142L138.225 18.3888L139.138 17.98ZM142.798 16.15L143.71 15.7404L143.283 14.7893L142.35 15.2556L142.798 16.15ZM146.608 13.84L146.776 12.8544L146.773 12.8539L146.608 13.84ZM154.318 5.86L154.765 6.75443L155.622 6.32584L155.23 5.45122L154.318 5.86ZM150.658 7.69L149.767 8.14548L150.219 9.02752L151.105 8.58443L150.658 7.69ZM147.718 9.94L147.542 10.9245L147.55 10.9259L147.718 9.94ZM146.968 21.39C143.615 21.39 141.136 19.9961 140.05 17.5712L138.225 18.3888C139.719 21.7239 143.06 23.39 146.968 23.39V21.39ZM139.585 18.8744L143.245 17.0444L142.35 15.2556L138.69 17.0856L139.585 18.8744ZM141.885 16.5596C142.758 18.5041 144.618 19.37 146.968 19.37V17.37C145.117 17.37 144.157 16.7359 143.71 15.7404L141.885 16.5596ZM146.968 19.37C148.031 19.37 149.068 19.1534 149.874 18.6465C150.716 18.1164 151.298 17.2632 151.298 16.15H149.298C149.298 16.4768 149.159 16.7336 148.809 16.9535C148.422 17.1966 147.794 17.37 146.968 17.37V19.37ZM151.298 16.15C151.298 15.5644 151.156 15.0282 150.843 14.5682C150.535 14.1166 150.114 13.8141 149.679 13.6015C148.861 13.2017 147.772 13.025 146.776 12.8544L146.439 14.8256C147.543 15.015 148.299 15.1533 148.801 15.3985C149.026 15.5084 149.133 15.6109 149.19 15.6936C149.24 15.7681 149.298 15.8956 149.298 16.15H151.298ZM146.773 12.8539C145.27 12.6008 143.663 12.2273 142.442 11.4425C141.292 10.7033 140.467 9.59523 140.467 7.69H138.467C138.467 10.3448 139.698 12.0567 141.361 13.125C142.952 14.1477 144.915 14.5692 146.442 14.8261L146.773 12.8539ZM140.467 7.69C140.467 4.8495 143.04 2.45 146.818 2.45V0.449998C142.255 0.449998 138.467 3.45049 138.467 7.69H140.467ZM146.818 2.45C149.845 2.45 152.31 3.8249 153.405 6.26878L155.23 5.45122C153.745 2.1351 150.45 0.449998 146.818 0.449998V2.45ZM153.87 4.96557L150.21 6.79557L151.105 8.58443L154.765 6.75443L153.87 4.96557ZM151.548 7.23452C150.7 5.57706 149.014 4.5 146.638 4.5V6.5C148.341 6.5 149.295 7.22294 149.767 8.14548L151.548 7.23452ZM146.638 4.5C145.669 4.5 144.751 4.72727 144.045 5.22834C143.311 5.74901 142.848 6.54496 142.848 7.51H144.848C144.848 7.24504 144.954 7.03599 145.203 6.85916C145.479 6.66273 145.956 6.5 146.638 6.5V4.5ZM142.848 7.51C142.848 8.10013 143.005 8.6351 143.326 9.09259C143.638 9.53768 144.062 9.84881 144.504 10.0758C145.354 10.5119 146.471 10.7338 147.542 10.9245L147.893 8.95549C146.774 8.75618 145.956 8.57315 145.418 8.29668C145.166 8.16744 145.034 8.04544 144.963 7.94397C144.9 7.8549 144.848 7.72987 144.848 7.51H142.848ZM147.55 10.9259C149.036 11.1786 150.593 11.5509 151.769 12.3328C152.873 13.0667 153.678 14.1806 153.678 16.12H155.678C155.678 13.4694 154.502 11.7483 152.876 10.6672C151.322 9.63412 149.399 9.21143 147.885 8.95414L147.55 10.9259ZM153.678 16.12C153.678 19.0016 150.924 21.39 146.968 21.39V23.39C151.591 23.39 155.678 20.4984 155.678 16.12H153.678Z" fill="#1D1D1D" mask="url(#path-1-outside-1_143_1078)"/>
</svg>
